.                        .-----------------TTTT_-----_______
                        /''''''''''(______O] ----------____  i______/]_
     __...---'"""t_ --''   Q                               ___________@
 |'''                   ._ _________________=----------'''''''
 |  *PatruDoi*    ..--''|   l L |_l   |
 |          ..--''      .  /-___j '   '
 |    ..--''           /  ,       '   '
 |--''                /           `    '
                      L__'         '    -
                                    -    '-.
                                     '.    /
                                       '-./


				presents
							
				
	WU-The.Story.of.The.Wu-Tang.Clan.(2008).DVDRip.x264-PatruDoi
		


-----------------------------------------------------------------------------
  Buy: http://www.amazon.com/dp/B001DHXT7K/
-----------------------------------------------------------------------------

---------------------------------
  Info: http://wumovie.com/
---------------------------------
 

  In his opening narration, director Gerald Barclay reveals that he grew up with members of the Wu-Tang Clan. That makes his profile a first-person feature, even if he doesn't turn the camera on himself. As a video producer, Barclay contributed to the hip-hop collective's early success, so he isn't exactly a disinterested observer, which gives him access, but can also result in a limited perspective. Fortunately, he adds enough outside voices to stave off accusations of bias. To set the scene, Barclay takes a brief tour of Staten Island ("Shaolin" in Wu speak) and the martial arts movies that inspired the crew's ideology. Founded in 1991, Wu-Tang formed around Ghostface Killah, Masta Killa, Method Man, Raekwon the Chef, RZA, GZA, Inspectah Deck, U-God, and OI' Dirty Bastard. As actor/rapper RZA explains, Wu-Tang stands for Wise Universal Truth Allah Now God... though he's open to other interpretations. As writer Margeaux Watson observes, "It is a typical 'Behind the Music' story," and Barclay dutifully tracks their rise, fall, and rebirth by speaking with friends, business associates, disc jockeys, and journalist-turned-A&R rep Bonz Malone, who admits he didn't get them at first. Sadly, the darkest moments revolve around ODB, who went from substance abuse to assault charges to incarceration, and passed away in 2004. Special features include Barclay's "Protect Ya Neck" video and extended interviews with Raekwon and RZA, who relates Wu's solo-career master plan. In addition, the filmmaker discusses the making of the documentary, while ODB's widow, Iceline Jones, remembers her late husband. --Kathleen C. Fennessy
  

------------
Release Info:
------------

Source: gt4dvd-swutangclan.iso
Bonus: Wu-Tang Clan - Protect Ya Neck (music video)


Format                           : Matroska
File size                        : 1.18 GiB
Duration                         : 1h 19mn
Overall bit rate                 : 2 125 Kbps
Movie name                       : WU - The Story of The Wu-Tang Clan    
Encoded date                     : UTC 2009-04-10 23:17:41
Writing application              : mkvmerge v2.4.0 ('Fumbling Towards Ecstasy') built on Oct 11 2008 20:13:15
Writing library                  : libebml v0.7.7 + libmatroska v0.8.1

Video
ID                               : 1
Format                           : AVC
Format/Info                      : Advanced Video Codec
Format profile                   : High@L3.0
Format settings, CABAC           : Yes
Format settings, ReFrames        : 5 frames
Format settings, GOP             : N=1
Muxing mode                      : Container profile=Unknown@3.0
Codec ID                         : V_MPEG4/ISO/AVC
Duration                         : 1h 19mn
Bit rate                         : 1 930 Kbps
Width                            : 720 pixels
Height                           : 352 pixels
Display aspect ratio             : 16:9
Original display aspect ratio    : 2.045
Frame rate                       : 29.970 fps
Color space                      : YUV
Chroma subsampling               : 4:2:0
Bit depth                        : 8 bits
Scan type                        : Progressive
Bits/(Pixel*Frame)               : 0.254
Stream size                      : 1.05 GiB (89%)
Title                            : x264 2-pass 1900kbps                         * PatruDoi *
Writing library                  : x264 core 66 r1093M 1df50b9
Encoding settings                : cabac=1 / ref=5 / deblock=1:0:2 / analyse=0x3:0x133 / me=hex / subme=7 / psy_rd=1.0:0.0 / mixed_ref=1 / me_range=16 / chroma_me=0 / trellis=1 / 8x8dct=1 / cqm=0 / deadzone=21,11 / chroma_qp_offset=-2 / threads=3 / nr=0 / decimate=1 / mbaff=0 / bframes=3 / b_pyramid=1 / b_adapt=1 / b_bias=0 / direct=3 / wpredb=1 / keyint=250 / keyint_min=25 / scenecut=40(pre) / rc=2pass / bitrate=1930 / ratetol=4.0 / qcomp=0.60 / qpmin=10 / qpmax=51 / qpstep=4 / cplxblur=20.0 / qblur=0.5 / ip_ratio=1.40 / pb_ratio=1.30 / aq=1:1.00
Language                         : English

Audio
ID                               : 2
Format                           : AC-3
Format/Info                      : Audio Coding 3
Mode extension                   : CM (complete main)
Codec ID                         : A_AC3
Duration                         : 1h 19mn
Bit rate mode                    : Constant
Bit rate                         : 192 Kbps
Channel(s)                       : 2 channels
Channel positions                : Front: L R
Sampling rate                    : 48.0 KHz
Bit depth                        : 16 bits
Stream size                      : 109 MiB (9%)
Title                            : AC-3 Stereo 192kbps 48kHz                
Language                         : English

Menu
00:00:00.000                     : en:Start
00:12:34.967                     : en:The Story of Popa Wu
00:20:15.933                     : en:The Killer Bees
00:28:38.967                     : en:Enter The Wu Tang (36 Chambers)
00:37:49.000                     : en:Maui
00:49:15.400                     : en:Classic O.D.B.
01:00:03.067                     : en:ODB's Final Days
01:09:02.133                     : en:Wu-Tang and Hollywood




--------------------------
Recommended for playback:
--------------------------

Media Player Classic - Homecinema  
http://mpc-hc.sourceforge.net/

FFDShow:  
http://sourceforge.net/projects/ffdshow-tryout/

Haali Media Splitter  
http://haali.cs.msu.ru/mkv/

AC3Filter  
http://ac3filter.net/projects/ac3filter


======================================================================
!!!ATTENTION!!! For a FLAC stream to work, you have to enable FLAC
decoding in the "Audio decoder configuration" of ffdshow.
======================================================================


Enjoy!		
If you respect the artist pay him/her!

Other torrents: 
http://thepiratebay.org/user/aand